<svg width="1083" height="258" viewBox="0 0 1083 258" fill="none" xmlns="http://www.w3.org/2000/svg">
<g clip-path="url(#clip0)">
<path fill-rule="evenodd" clip-rule="evenodd" d="M451.633 103.764C462.429 103.764 471.32 107.155 478.306 113.936V51H506.409V187.679H478.624V178.461H478.306C471.32 186.195 462.429 190.062 451.633 190.062C439.883 190.062 430.198 185.93 422.577 177.666C414.956 169.296 411.146 159.071 411.146 146.993C411.146 134.914 414.956 124.69 422.577 116.32C430.198 107.949 439.883 103.764 451.633 103.764ZM460.048 166.064C465.552 166.064 470.05 164.263 473.543 160.661C477.142 157.058 478.941 152.502 478.941 146.993C478.941 141.377 477.089 136.768 473.384 133.166C469.786 129.564 465.34 127.762 460.048 127.762C454.649 127.762 450.098 129.564 446.393 133.166C442.794 136.768 440.995 141.377 440.995 146.993C440.995 152.608 442.741 157.217 446.234 160.82C449.727 164.316 454.332 166.064 460.048 166.064Z" fill="#062925"/>
<path d="M374.281 103.764C378.938 103.764 383.542 104.294 388.094 105.354C392.645 106.413 396.033 107.473 398.255 108.532L401.59 110.121L392.381 128.557C386.03 125.167 379.997 123.471 374.281 123.471C371.105 123.471 368.83 123.842 367.454 124.584C366.183 125.22 365.548 126.491 365.548 128.398C365.548 128.822 365.601 129.246 365.707 129.67C365.813 130.093 366.025 130.517 366.342 130.941C366.66 131.259 366.924 131.577 367.136 131.895C367.454 132.107 367.93 132.371 368.565 132.689C369.2 133.007 369.676 133.272 369.994 133.484C370.417 133.59 371.052 133.802 371.899 134.12C372.746 134.438 373.381 134.702 373.804 134.914C374.228 135.02 374.916 135.232 375.868 135.55C376.927 135.868 377.721 136.08 378.25 136.186C381.531 137.139 384.389 138.199 386.824 139.364C389.258 140.53 391.799 142.119 394.445 144.132C397.197 146.145 399.314 148.688 400.796 151.761C402.278 154.833 403.019 158.33 403.019 162.25C403.019 180.792 390.158 190.062 364.437 190.062C358.615 190.062 353.058 189.162 347.766 187.361C342.579 185.56 338.822 183.758 336.493 181.957L333 179.096L344.432 159.866C345.278 160.608 346.39 161.508 347.766 162.568C349.142 163.521 351.629 164.899 355.228 166.7C358.827 168.395 361.949 169.243 364.596 169.243C370.417 169.243 373.328 167.283 373.328 163.362C373.328 161.561 372.587 160.184 371.105 159.23C369.623 158.171 367.083 157.005 363.484 155.734C359.991 154.462 357.239 153.297 355.228 152.238C350.147 149.589 346.125 146.622 343.161 143.338C340.198 139.947 338.716 135.497 338.716 129.988C338.716 121.723 341.891 115.313 348.242 110.757C354.699 106.095 363.378 103.764 374.281 103.764Z" fill="#062925"/>
<path fill-rule="evenodd" clip-rule="evenodd" d="M548.74 150.807H607.804C607.909 150.171 607.962 148.9 607.962 146.993C607.962 133.113 603.887 122.465 595.737 115.048C587.692 107.526 577.214 103.764 564.3 103.764C552.022 103.764 541.49 108.002 532.704 116.479C523.919 124.955 519.526 135.126 519.526 146.993C519.526 158.86 523.919 169.031 532.704 177.507C541.49 185.877 552.022 190.062 564.3 190.062C583.988 190.062 598.066 182.964 606.533 168.766L586.211 158.595C582.823 162.197 579.807 164.634 577.161 165.905C574.514 167.071 570.916 167.654 566.364 167.654C562.024 167.654 558.002 166.276 554.297 163.521C550.593 160.767 548.74 156.529 548.74 150.807ZM580.495 135.232H549.534C549.746 131.312 551.228 128.133 553.98 125.696C556.732 123.26 560.437 122.041 565.094 122.041C569.328 122.041 572.768 123.207 575.414 125.537C578.166 127.762 579.86 130.994 580.495 135.232Z" fill="#062925"/>
<path d="M620.757 187.679V51H648.86V187.679H620.757Z" fill="#062925"/>
<path d="M667.893 187.679V106.148H695.995V187.679H667.893Z" fill="#062925"/>
<path d="M735.514 106.148L755.36 150.489L775.207 106.148H808.549L764.886 187.679H745.834L702.171 106.148H735.514Z" fill="#062925"/>
<path fill-rule="evenodd" clip-rule="evenodd" d="M837.755 150.807H896.819C896.924 150.171 896.977 148.9 896.977 146.993C896.977 133.113 892.902 122.465 884.752 115.048C876.707 107.526 866.229 103.764 853.315 103.764C841.037 103.764 830.505 108.002 821.719 116.479C812.934 124.955 808.541 135.126 808.541 146.993C808.541 158.86 812.934 169.031 821.719 177.507C830.505 185.877 841.037 190.062 853.315 190.062C873.003 190.062 887.081 182.964 895.548 168.766L875.226 158.595C871.838 162.197 868.822 164.634 866.176 165.905C863.529 167.071 859.931 167.654 855.379 167.654C851.039 167.654 847.017 166.276 843.312 163.521C839.608 160.767 837.755 156.529 837.755 150.807ZM869.51 135.232H838.549C838.761 131.312 840.243 128.133 842.995 125.696C845.747 123.26 849.452 122.041 854.109 122.041C858.343 122.041 861.783 123.207 864.429 125.537C867.181 127.762 868.875 130.994 869.51 135.232Z" fill="#062925"/>
<path d="M909.772 187.679V106.148H937.875V117.909H938.192C938.404 117.485 938.722 116.955 939.145 116.32C939.674 115.684 940.733 114.571 942.32 112.982C943.908 111.393 945.602 109.962 947.401 108.691C949.201 107.42 951.529 106.307 954.387 105.354C957.245 104.294 960.156 103.764 963.12 103.764C966.189 103.764 969.206 104.188 972.17 105.036C973.78 105.496 975.156 105.957 976.297 106.417L976.146 106.148H1008.54L1031.24 147.946L1050.61 106.148H1083L1019.01 229H986.625L1014.73 174.964L979.386 111.926L969.153 132.689C965.66 129.723 960.791 128.239 954.546 128.239C951.159 128.239 948.248 128.981 945.813 130.464C943.379 131.948 941.632 133.749 940.574 135.868C939.621 137.987 938.933 139.788 938.51 141.271C938.087 142.755 937.875 143.92 937.875 144.768V187.679H909.772Z" fill="#062925"/>
<path d="M697.455 83C697.455 91.2843 690.637 98 682.227 98C673.817 98 667 91.2843 667 83C667 74.7157 673.817 68 682.227 68C690.637 68 697.455 74.7157 697.455 83Z" fill="#062925"/>
<path d="M126.967 129.243H279.764L276.31 145.166H138.827L140.157 148.916C144.401 160.891 155.728 168.893 168.433 168.893H277.035C287.432 168.893 296.952 161.236 299.175 151.076L309.142 105.607L140.481 104.916L135.147 89.4077H312.693L312.838 88.746C314.099 82.9877 312.798 77.1633 309.263 72.7669C305.728 68.3762 300.32 65.854 294.42 65.854H106.339L113.808 89.4077L119.498 105.607L126.967 129.243Z" fill="#B7D555"/>
<path fill-rule="evenodd" clip-rule="evenodd" d="M57.4678 57.875H11.8651C5.31236 57.875 0 52.5621 0 46.0087C0 39.4553 5.31236 34.1425 11.8651 34.1425H66.1836C71.3639 34.1425 75.9473 37.5051 77.5017 42.4535L81.7992 56.5483L102.789 123.204L123.778 189.859H259.547C266.099 189.859 271.412 195.172 271.412 201.726C271.412 208.279 266.099 213.592 259.547 213.592H115.067C109.882 213.592 105.298 210.229 103.744 205.281L57.4678 57.875ZM182.901 240.186C182.901 250.007 174.94 257.968 165.119 257.968C155.298 257.968 147.336 250.007 147.336 240.186C147.336 230.365 155.298 222.403 165.119 222.403C174.94 222.403 182.901 230.365 182.901 240.186Z" fill="#366B64"/>
<path fill-rule="evenodd" clip-rule="evenodd" d="M288.433 48.7877C301.936 17.5984 256.067 0 256.067 0C256.067 0 256.316 53.4809 288.433 48.7877ZM340 14.937C340 14.937 289.797 25.2537 300.151 57.4595C331.962 65.5006 340 14.937 340 14.937Z" fill="url(#paint0_linear)"/>
</g>
<defs>
<linearGradient id="paint0_linear" x1="245.282" y1="215.312" x2="261.711" y2="-12.2885" gradientUnits="userSpaceOnUse">
<stop offset="0.2234" stop-color="#B7D555"/>
<stop offset="0.6489" stop-color="#A8D710"/>
<stop offset="1" stop-color="#29615A"/>
</linearGradient>
<clipPath id="clip0">
<rect width="1083" height="257.968" fill="white"/>
</clipPath>
</defs>
</svg>
